<svg fill="none" height="69" viewBox="0 0 69 69" width="69" xmlns="http://www.w3.org/2000/svg" xmlns:xlink="http://www.w3.org/1999/xlink"><clipPath id="a"><path d="m0 0h69v69h-69z"/></clipPath><g clip-path="url(#a)"><path d="m67.9673 42.8457c-4.6082 18.4823-23.3298 29.7303-41.8163 25.1214-18.47873-4.6077-29.7279-23.3285-25.11767-41.8093 4.60619-18.48434 23.32777-29.73317 41.80857-25.12544 18.4851 4.60772 29.7341 23.33014 25.1254 41.81334z" fill="#F7931A"/><g fill="#fff"><path d="m46.5921 27.2557c-.4182-4.3484-4.1718-5.8057-8.9151-6.2213v-6.0344h-3.6705v5.8733c-.9637 0-1.9508.0182-2.9301.039v-5.9123h-3.6705l-.0026 6.0292c-.7949.0155-1.5768.0311-2.3379.0311v-.0182l-5.0628-.0026v3.9225s2.7119-.0519 2.6652-.0026c1.4884 0 1.9716.8624 2.1119 1.608v6.8734c.1039 0 .2364.0051.387.0259h-.387l-.0026 9.6295c-.065.4676-.3403 1.2131-1.3794 1.2157.0468.0416-2.6678 0-2.6678 0l-.7299 4.3849h4.7797c.8884 0 1.7638.0156 2.621.0208l.0026 6.1019h3.6679v-6.037c1.0053.0208 1.9794.0286 2.9327.0286l-.0026 6.0084h3.6705v-6.0889c6.172-.3533 10.4971-1.9093 11.0322-7.7073.4338-4.668-1.7612-6.7539-5.2654-7.5955 2.1326-1.0807 3.4652-2.9899 3.1535-6.1721zm-5.1381 13.0455c0 4.5588-7.806 4.0419-10.2971 4.0419v-8.0865c2.4911.0052 10.2971-.7091 10.2971 4.0446zm-1.7093-11.4063c0 4.1484-6.5149 3.6627-8.5878 3.6652v-7.3305c2.0755 0 8.5904-.6598 8.5878 3.6653z"/><path d="m24.788 33.2778h.5455v.4027h-.5455z"/></g></g></svg>
