<?xml version="1.0" standalone="no"?>
<!DOCTYPE svg PUBLIC "-//W3C//DTD SVG 20010904//EN"
 "http://www.w3.org/TR/2001/REC-SVG-20010904/DTD/svg10.dtd">
<svg version="1.0" xmlns="http://www.w3.org/2000/svg"
 width="1024.000000pt" height="1024.000000pt" viewBox="0 0 1024.000000 1024.000000"
 preserveAspectRatio="xMidYMid meet">

<g transform="translate(0.000000,1024.000000) scale(0.100000,-0.100000)"
fill="#000000" stroke="none">
<path d="M3437 7791 l-88 -7 -331 -331 -331 -332 -31 24 c-44 34 -109 55 -168
55 -93 0 -71 18 -493 -424 -93 -98 -176 -192 -184 -209 -20 -48 -9 -140 23
-186 l26 -36 -42 -8 c-24 -4 -148 -25 -277 -48 -128 -22 -248 -46 -266 -53
-46 -19 -83 -54 -108 -101 -22 -39 -22 -48 -22 -490 0 -499 -3 -473 68 -555
26 -29 263 -255 467 -444 30 -28 84 -78 120 -112 36 -33 89 -82 117 -109 29
-26 53 -52 53 -56 0 -4 -54 -8 -119 -8 -74 -1 -140 -8 -171 -17 -65 -19 -126
-74 -156 -139 l-24 -50 0 -448 c0 -488 0 -489 58 -551 15 -16 50 -39 77 -52
47 -22 62 -24 226 -24 l177 0 7 -37 c18 -96 102 -252 195 -362 92 -109 265
-217 420 -261 108 -32 319 -39 426 -15 327 72 582 299 684 608 l23 67 1285 -2
1286 -3 11 -46 c55 -215 262 -454 480 -555 138 -64 212 -79 385 -79 130 0 167
4 231 22 317 92 549 314 634 608 l16 55 237 0 c264 0 337 10 437 59 78 39 158
119 197 200 27 54 33 80 39 170 11 151 10 1612 -1 1695 -5 46 -20 91 -42 135
-35 67 -576 969 -631 1051 -86 128 -181 213 -312 275 -130 63 -159 68 -487 73
l-298 4 0 367 0 368 -25 48 c-13 27 -22 52 -19 57 3 5 2 7 -3 6 -4 -2 -24 7
-44 20 -69 42 -98 42 -469 -10 -190 -26 -399 -54 -465 -63 -416 -54 -704 -99
-734 -113 -75 -35 -131 -126 -131 -211 0 -45 -37 -242 -47 -252 -5 -5 -32 -12
-59 -15 l-50 -6 -85 98 c-162 190 -289 332 -320 359 l-32 26 -158 -3 -159 -3
-90 -90 -91 -90 -272 276 c-247 250 -276 276 -312 282 -45 8 -129 7 -258 -2z
m296 -533 c215 -224 267 -281 267 -289 0 -4 -47 -10 -104 -14 l-105 -7 -116
-129 c-64 -71 -120 -129 -124 -129 -3 0 -49 56 -101 125 l-95 125 -70 -6 c-38
-3 -118 -8 -176 -12 l-107 -7 267 266 c146 146 269 267 272 267 4 1 90 -85
192 -190z m3147 -212 l0 -193 -172 -27 c-306 -48 -542 -86 -568 -91 -24 -5
-27 -12 -44 -113 -19 -115 -45 -264 -156 -882 -61 -338 -92 -510 -150 -820 -6
-30 -28 -156 -50 -280 -23 -124 -43 -233 -46 -242 -5 -17 -89 -18 -1587 -18
l-1582 1 -156 147 c-137 128 -587 550 -778 728 l-66 61 -3 294 -3 294 83 13
c88 14 647 112 1613 282 88 16 264 47 390 69 453 79 1042 183 1145 201 58 10
276 48 485 85 338 58 382 68 400 88 16 17 30 73 59 223 21 109 39 204 41 209
1 6 67 19 146 29 79 10 329 44 554 76 226 32 418 58 428 59 16 1 17 -14 17
-193z m-2155 -57 c77 -78 96 -103 85 -109 -8 -4 -52 -11 -97 -15 l-83 -8 0 27
0 26 -97 0 -98 0 90 90 c49 50 92 90 95 90 4 0 51 -45 105 -101z m-2016 -292
c58 -39 135 -91 170 -116 l65 -45 -65 -14 c-35 -7 -110 -21 -166 -31 l-103
-18 -117 78 c-65 44 -119 83 -121 87 -1 5 32 47 74 95 l76 86 40 -25 c23 -15
89 -58 147 -97z m5102 -347 c73 -22 138 -61 189 -113 19 -19 105 -152 191
-294 321 -532 443 -739 455 -773 10 -27 13 -215 14 -830 0 -773 -1 -796 -20
-827 -11 -18 -30 -35 -42 -38 -13 -3 -126 -4 -252 -3 l-228 3 -33 92 c-41 114
-78 180 -152 268 -82 98 -172 168 -288 225 -118 58 -194 78 -331 87 -405 25
-784 -222 -911 -594 l-28 -83 -117 0 c-65 0 -118 2 -118 5 0 6 134 292 200
428 31 64 48 87 62 87 28 0 89 28 117 53 13 12 32 40 42 62 18 38 19 92 19
1153 l0 1112 584 0 c552 0 587 -1 647 -20z m-1619 -1662 l-3 -318 -60 0 c-34
0 -59 4 -59 11 0 5 9 58 20 117 28 144 51 271 56 307 4 26 48 207 49 202 0 -1
-1 -145 -3 -319z m-3862 -745 c-141 -122 -227 -253 -270 -408 l-17 -60 -81 -3
-82 -3 0 261 0 260 252 0 253 0 -55 -47z m1498 -35 c23 -46 80 -157 127 -248
46 -91 85 -171 85 -177 0 -10 -32 -13 -129 -13 l-130 0 -16 57 c-39 134 -129
276 -248 391 l-75 72 172 0 172 0 42 -82z m2252 78 c0 -2 -39 -84 -86 -183
-47 -98 -102 -213 -121 -255 l-36 -78 -736 0 -736 0 -114 228 c-63 125 -120
242 -128 260 l-13 32 985 0 c542 0 985 -2 985 -4z m-3043 -240 c89 -24 145
-57 213 -125 106 -107 150 -210 150 -351 0 -139 -44 -244 -145 -346 -123 -125
-300 -173 -470 -129 -149 39 -285 165 -336 313 -95 269 59 563 334 637 68 18
188 18 254 1z m4340 0 c86 -23 145 -58 214 -126 99 -98 149 -209 149 -337 0
-133 -45 -250 -132 -345 -151 -164 -396 -205 -592 -100 -65 34 -164 133 -198
198 -80 149 -75 344 12 488 42 69 131 155 192 184 103 50 251 66 355 38z"/>
<path d="M5310 6165 c-63 -12 -139 -26 -168 -30 -42 -6 -53 -11 -56 -28 -3
-12 -28 -188 -56 -392 -28 -203 -68 -491 -89 -640 -21 -148 -35 -274 -31 -278
4 -5 86 -7 181 -5 l174 3 92 650 c50 358 94 671 98 698 8 56 17 55 -145 22z"/>
<path d="M4565 6034 c-71 -13 -150 -27 -175 -32 -42 -7 -45 -9 -48 -42 -3 -39
-30 -250 -97 -760 -25 -190 -45 -360 -45 -378 l0 -34 185 4 c102 2 185 5 185
6 0 7 81 608 95 707 8 55 26 190 40 300 14 110 28 212 31 228 7 33 7 33 -171
1z"/>
<path d="M3792 5895 c-101 -18 -186 -36 -190 -40 -7 -6 -131 -981 -132 -1033
l0 -34 187 5 188 4 13 89 c10 76 84 626 126 947 9 68 9 97 2 96 -6 -1 -94 -16
-194 -34z"/>
<path d="M3074 5771 l-190 -34 -17 -131 c-9 -72 -31 -237 -47 -366 -17 -129
-35 -271 -40 -315 -6 -44 -12 -93 -15 -108 l-5 -28 184 2 184 2 6 31 c3 17 21
148 41 291 20 143 49 356 66 474 17 117 29 214 27 215 -2 1 -89 -13 -194 -33z"/>
<path d="M2440 5669 c-52 -10 -162 -30 -245 -44 -204 -35 -255 -46 -255 -59 0
-6 -5 -42 -10 -79 l-10 -69 72 -67 c40 -37 133 -123 207 -192 74 -68 160 -148
192 -177 l58 -53 6 33 c3 18 25 182 50 363 25 182 47 338 49 348 5 20 6 20
-114 -4z"/>
<path d="M7000 5634 l0 -384 610 0 c336 0 610 3 610 6 0 7 -47 88 -183 319
-247 419 -246 417 -323 436 -21 5 -191 9 -376 8 l-338 -1 0 -384z"/>
<path d="M7147 4921 l-139 -6 -29 -33 c-23 -26 -29 -41 -29 -80 0 -54 18 -85
60 -107 41 -21 319 -21 360 0 97 50 94 179 -6 221 -19 8 -44 13 -56 12 -13 -1
-85 -4 -161 -7z"/>
<path d="M2870 3453 c-80 -29 -122 -72 -141 -145 -32 -121 80 -242 206 -224
54 9 123 57 148 106 27 52 19 136 -17 189 -42 61 -135 96 -196 74z"/>
<path d="M7198 3450 c-135 -40 -179 -214 -82 -314 130 -134 373 12 314 189
-33 100 -134 155 -232 125z"/>
</g>
</svg>
